<svg style="display:none">
	<symbol id="Logo" viewBox="0 0 126 16" fill="none" xmlns="http://www.w3.org/2000/svg"><path d="M0.459999 0.999999H10.02V2.98H2.84V6.92H8.22V8.9H2.84V15H0.459999V0.999999Z" fill="#161616"/><path d="M23.6177 2.98H22.8977L18.6977 15H16.2577L21.2177 0.999999H25.2577L30.2377 15H27.7977L23.6177 2.98ZM18.9777 9.62H27.1377V11.58H18.9777V9.62Z" fill="#161616"/><path d="M40.435 11.16C40.515 11.5333 40.6683 11.8733 40.895 12.18C41.135 12.4733 41.4483 12.7067 41.835 12.88C42.235 13.0533 42.7083 13.14 43.255 13.14C44.095 13.14 44.7217 12.9467 45.135 12.56C45.5483 12.16 45.755 11.6933 45.755 11.16C45.755 10.72 45.6217 10.3533 45.355 10.06C45.1017 9.76667 44.7417 9.52 44.275 9.32C43.8083 9.10667 43.275 8.90667 42.675 8.72C42.1283 8.56 41.6017 8.39333 41.095 8.22C40.5883 8.03333 40.1283 7.80667 39.715 7.54C39.315 7.26 38.995 6.90667 38.755 6.48C38.515 6.04 38.4017 5.49333 38.415 4.84C38.415 3.98667 38.615 3.26667 39.015 2.68C39.415 2.08 39.975 1.62667 40.695 1.32C41.415 1.01333 42.2417 0.86 43.175 0.86C43.9617 0.86 44.6683 0.973333 45.295 1.2C45.935 1.41333 46.475 1.73333 46.915 2.16C47.355 2.57333 47.6817 3.08667 47.895 3.7L45.715 4.42C45.635 4.12667 45.475 3.86667 45.235 3.64C44.995 3.4 44.695 3.21333 44.335 3.08C43.9883 2.94667 43.6083 2.87333 43.195 2.86C42.7417 2.84667 42.335 2.91333 41.975 3.06C41.6283 3.20667 41.3483 3.42 41.135 3.7C40.9217 3.96667 40.815 4.28 40.815 4.64C40.815 5.05333 40.935 5.38 41.175 5.62C41.415 5.84667 41.7283 6.04 42.115 6.2C42.515 6.34667 42.955 6.5 43.435 6.66C43.995 6.82 44.5483 7.00667 45.095 7.22C45.655 7.42 46.1617 7.68 46.615 8C47.0817 8.30667 47.455 8.7 47.735 9.18C48.015 9.66 48.155 10.26 48.155 10.98C48.155 11.7533 47.975 12.4533 47.615 13.08C47.2683 13.7067 46.735 14.2067 46.015 14.58C45.295 14.9533 44.4017 15.14 43.335 15.14C42.4683 15.14 41.675 15.0133 40.955 14.76C40.2483 14.4933 39.655 14.12 39.175 13.64C38.7083 13.1467 38.4017 12.5667 38.255 11.9L40.435 11.16Z" fill="#161616"/><path d="M57.4952 0.999999H59.8752V6.92H66.4752V0.999999H68.8352V15H66.4752V8.9H59.8752V15H57.4952V0.999999Z" fill="#161616"/><path d="M78.7725 0.999999H81.1525V15H78.7725V0.999999Z" fill="#161616"/><path d="M97.485 15.14C96.4983 15.14 95.5717 14.9667 94.705 14.62C93.8383 14.2733 93.0783 13.7867 92.425 13.16C91.785 12.52 91.2783 11.7667 90.905 10.9C90.545 10.02 90.365 9.05333 90.365 8C90.365 6.96 90.545 6.00667 90.905 5.14C91.2783 4.26 91.785 3.5 92.425 2.86C93.0783 2.22 93.8383 1.72667 94.705 1.38C95.5717 1.03333 96.4983 0.86 97.485 0.86C98.4717 0.86 99.3917 1.03333 100.245 1.38C101.112 1.72667 101.865 2.22 102.505 2.86C103.158 3.5 103.665 4.26 104.025 5.14C104.398 6.00667 104.585 6.96 104.585 8C104.585 9.05333 104.398 10.02 104.025 10.9C103.665 11.7667 103.158 12.52 102.505 13.16C101.865 13.7867 101.112 14.2733 100.245 14.62C99.3917 14.9667 98.4717 15.14 97.485 15.14ZM97.485 13.12C98.3917 13.12 99.1983 12.9133 99.905 12.5C100.612 12.0733 101.165 11.48 101.565 10.72C101.965 9.94667 102.165 9.04 102.165 8C102.165 6.94667 101.965 6.04 101.565 5.28C101.165 4.52 100.612 3.93333 99.905 3.52C99.1983 3.09333 98.3917 2.88 97.485 2.88C96.5783 2.88 95.7717 3.09333 95.065 3.52C94.3583 3.93333 93.7983 4.52 93.385 5.28C92.985 6.04 92.785 6.94667 92.785 8C92.785 9.04 92.985 9.94667 93.385 10.72C93.7983 11.48 94.3583 12.0733 95.065 12.5C95.7717 12.9133 96.5783 13.12 97.485 13.12Z" fill="#161616"/><path d="M125.089 0.999999V15H122.669L116.149 4.74V15H113.769V0.999999H116.209L122.729 11.22V0.999999H125.089Z" fill="#161616"/></symbol>
	<symbol id="Uncode" width="79" height="36" viewBox="0 0 79 36" fill="none" xmlns="http://www.w3.org/2000/svg"><path d="M13.169 17.126C12.353 17.126 11.633 16.976 11.009 16.676C10.385 16.364 9.899 15.896 9.551 15.272C9.203 14.636 9.029 13.838 9.029 12.878V7.388H11.279V12.572C11.279 13.436 11.471 14.084 11.855 14.516C12.251 14.936 12.809 15.146 13.529 15.146C14.057 15.146 14.513 15.038 14.897 14.822C15.293 14.606 15.599 14.282 15.815 13.85C16.043 13.418 16.157 12.884 16.157 12.248V7.388H18.407V17H16.265V14.408L16.643 15.2C16.319 15.824 15.845 16.304 15.221 16.64C14.597 16.964 13.913 17.126 13.169 17.126ZM26.807 7.28C27.575 7.28 28.259 7.43 28.859 7.73C29.471 8.03 29.951 8.492 30.299 9.116C30.647 9.728 30.821 10.52 30.821 11.492V17H28.571V11.78C28.571 10.928 28.367 10.292 27.959 9.872C27.563 9.452 27.005 9.242 26.285 9.242C25.757 9.242 25.289 9.35 24.881 9.566C24.473 9.782 24.155 10.106 23.927 10.538C23.711 10.958 23.603 11.492 23.603 12.14V17H21.353V7.388H23.495V9.98L23.117 9.188C23.453 8.576 23.939 8.108 24.575 7.784C25.223 7.448 25.967 7.28 26.807 7.28ZM38.1028 17.126C37.0948 17.126 36.1948 16.916 35.4028 16.496C34.6228 16.064 34.0108 15.476 33.5668 14.732C33.1228 13.988 32.9008 13.142 32.9008 12.194C32.9008 11.234 33.1228 10.388 33.5668 9.656C34.0108 8.912 34.6228 8.33 35.4028 7.91C36.1948 7.49 37.0948 7.28 38.1028 7.28C39.0388 7.28 39.8608 7.472 40.5688 7.856C41.2888 8.228 41.8348 8.78 42.2068 9.512L40.4788 10.52C40.1908 10.064 39.8368 9.728 39.4168 9.512C39.0088 9.296 38.5648 9.188 38.0848 9.188C37.5328 9.188 37.0348 9.308 36.5908 9.548C36.1468 9.788 35.7988 10.136 35.5468 10.592C35.2948 11.036 35.1688 11.57 35.1688 12.194C35.1688 12.818 35.2948 13.358 35.5468 13.814C35.7988 14.258 36.1468 14.6 36.5908 14.84C37.0348 15.08 37.5328 15.2 38.0848 15.2C38.5648 15.2 39.0088 15.092 39.4168 14.876C39.8368 14.66 40.1908 14.324 40.4788 13.868L42.2068 14.876C41.8348 15.596 41.2888 16.154 40.5688 16.55C39.8608 16.934 39.0388 17.126 38.1028 17.126ZM48.3312 17.126C47.3472 17.126 46.4712 16.916 45.7032 16.496C44.9352 16.064 44.3292 15.476 43.8852 14.732C43.4412 13.988 43.2192 13.142 43.2192 12.194C43.2192 11.234 43.4412 10.388 43.8852 9.656C44.3292 8.912 44.9352 8.33 45.7032 7.91C46.4712 7.49 47.3472 7.28 48.3312 7.28C49.3272 7.28 50.2092 7.49 50.9772 7.91C51.7572 8.33 52.3632 8.906 52.7952 9.638C53.2392 10.37 53.4612 11.222 53.4612 12.194C53.4612 13.142 53.2392 13.988 52.7952 14.732C52.3632 15.476 51.7572 16.064 50.9772 16.496C50.2092 16.916 49.3272 17.126 48.3312 17.126ZM48.3312 15.2C48.8832 15.2 49.3752 15.08 49.8072 14.84C50.2392 14.6 50.5752 14.252 50.8152 13.796C51.0672 13.34 51.1932 12.806 51.1932 12.194C51.1932 11.57 51.0672 11.036 50.8152 10.592C50.5752 10.136 50.2392 9.788 49.8072 9.548C49.3752 9.308 48.8892 9.188 48.3492 9.188C47.7972 9.188 47.3052 9.308 46.8732 9.548C46.4532 9.788 46.1172 10.136 45.8652 10.592C45.6132 11.036 45.4872 11.57 45.4872 12.194C45.4872 12.806 45.6132 13.34 45.8652 13.796C46.1172 14.252 46.4532 14.6 46.8732 14.84C47.3052 15.08 47.7912 15.2 48.3312 15.2ZM59.6807 17.126C58.7567 17.126 57.9227 16.922 57.1787 16.514C56.4467 16.094 55.8707 15.518 55.4507 14.786C55.0307 14.054 54.8207 13.19 54.8207 12.194C54.8207 11.198 55.0307 10.334 55.4507 9.602C55.8707 8.87 56.4467 8.3 57.1787 7.892C57.9227 7.484 58.7567 7.28 59.6807 7.28C60.4847 7.28 61.2047 7.46 61.8407 7.82C62.4767 8.168 62.9807 8.702 63.3527 9.422C63.7247 10.142 63.9107 11.066 63.9107 12.194C63.9107 13.31 63.7307 14.234 63.3707 14.966C63.0107 15.686 62.5127 16.226 61.8767 16.586C61.2407 16.946 60.5087 17.126 59.6807 17.126ZM59.9507 15.2C60.4907 15.2 60.9707 15.08 61.3907 14.84C61.8227 14.6 62.1647 14.252 62.4167 13.796C62.6807 13.34 62.8127 12.806 62.8127 12.194C62.8127 11.57 62.6807 11.036 62.4167 10.592C62.1647 10.136 61.8227 9.788 61.3907 9.548C60.9707 9.308 60.4907 9.188 59.9507 9.188C59.4107 9.188 58.9247 9.308 58.4927 9.548C58.0727 9.788 57.7307 10.136 57.4667 10.592C57.2147 11.036 57.0887 11.57 57.0887 12.194C57.0887 12.806 57.2147 13.34 57.4667 13.796C57.7307 14.252 58.0727 14.6 58.4927 14.84C58.9247 15.08 59.4107 15.2 59.9507 15.2ZM62.8667 17V14.732L62.9567 12.176L62.7767 9.62V3.644H65.0087V17H62.8667ZM72.4881 17.126C71.4201 17.126 70.4841 16.916 69.6801 16.496C68.8881 16.064 68.2701 15.476 67.8261 14.732C67.3941 13.988 67.1781 13.142 67.1781 12.194C67.1781 11.234 67.3881 10.388 67.8081 9.656C68.2401 8.912 68.8281 8.33 69.5721 7.91C70.3281 7.49 71.1861 7.28 72.1461 7.28C73.0821 7.28 73.9161 7.484 74.6481 7.892C75.3801 8.3 75.9561 8.876 76.3761 9.62C76.7961 10.364 77.0061 11.24 77.0061 12.248C77.0061 12.344 77.0001 12.452 76.9881 12.572C76.9881 12.692 76.9821 12.806 76.9701 12.914H68.9601V11.42H75.7821L74.9001 11.888C74.9121 11.336 74.7981 10.85 74.5581 10.43C74.3181 10.01 73.9881 9.68 73.5681 9.44C73.1601 9.2 72.6861 9.08 72.1461 9.08C71.5941 9.08 71.1081 9.2 70.6881 9.44C70.2801 9.68 69.9561 10.016 69.7161 10.448C69.4881 10.868 69.3741 11.366 69.3741 11.942V12.302C69.3741 12.878 69.5061 13.388 69.7701 13.832C70.0341 14.276 70.4061 14.618 70.8861 14.858C71.3661 15.098 71.9181 15.218 72.5421 15.218C73.0821 15.218 73.5681 15.134 74.0001 14.966C74.4321 14.798 74.8161 14.534 75.1521 14.174L76.3581 15.56C75.9261 16.064 75.3801 16.454 74.7201 16.73C74.0721 16.994 73.3281 17.126 72.4881 17.126Z" fill="#181818"/><path d="M49.713 33.112C48.8263 33.112 48.1357 32.888 47.641 32.44C47.1463 31.9827 46.899 31.306 46.899 30.41V23.802H49.083V30.382C49.083 30.6993 49.167 30.9467 49.335 31.124C49.503 31.292 49.7317 31.376 50.021 31.376C50.3663 31.376 50.6603 31.2827 50.903 31.096L51.491 32.636C51.267 32.7947 50.9963 32.916 50.679 33C50.371 33.0747 50.049 33.112 49.713 33.112ZM45.737 27.316V25.636H50.959V27.316H45.737ZM56.2226 33.112C55.3639 33.112 54.6079 32.944 53.9546 32.608C53.3106 32.272 52.8112 31.8147 52.4566 31.236C52.1019 30.648 51.9246 29.9807 51.9246 29.234C51.9246 28.478 52.0972 27.8107 52.4426 27.232C52.7972 26.644 53.2779 26.1867 53.8846 25.86C54.4912 25.524 55.1772 25.356 55.9426 25.356C56.6799 25.356 57.3426 25.5147 57.9306 25.832C58.5279 26.14 58.9992 26.588 59.3446 27.176C59.6899 27.7547 59.8626 28.45 59.8626 29.262C59.8626 29.346 59.8579 29.444 59.8486 29.556C59.8392 29.6587 59.8299 29.7567 59.8206 29.85H53.7026V28.576H58.6726L57.8326 28.954C57.8326 28.562 57.7532 28.2213 57.5946 27.932C57.4359 27.6427 57.2166 27.4187 56.9366 27.26C56.6566 27.092 56.3299 27.008 55.9566 27.008C55.5832 27.008 55.2519 27.092 54.9626 27.26C54.6826 27.4187 54.4632 27.6473 54.3046 27.946C54.1459 28.2353 54.0666 28.5807 54.0666 28.982V29.318C54.0666 29.7287 54.1552 30.0927 54.3326 30.41C54.5192 30.718 54.7759 30.956 55.1026 31.124C55.4386 31.2827 55.8306 31.362 56.2786 31.362C56.6799 31.362 57.0299 31.3013 57.3286 31.18C57.6366 31.0587 57.9166 30.8767 58.1686 30.634L59.3306 31.894C58.9852 32.286 58.5512 32.5893 58.0286 32.804C57.5059 33.0093 56.9039 33.112 56.2226 33.112ZM64.9566 33.112C64.1446 33.112 63.4213 32.9487 62.7866 32.622C62.1519 32.286 61.6526 31.824 61.2886 31.236C60.9339 30.648 60.7566 29.9807 60.7566 29.234C60.7566 28.478 60.9339 27.8107 61.2886 27.232C61.6526 26.644 62.1519 26.1867 62.7866 25.86C63.4213 25.524 64.1446 25.356 64.9566 25.356C65.7499 25.356 66.4406 25.524 67.0286 25.86C67.6166 26.1867 68.0506 26.658 68.3306 27.274L66.6366 28.184C66.4406 27.8293 66.1933 27.568 65.8946 27.4C65.6053 27.232 65.2879 27.148 64.9426 27.148C64.5693 27.148 64.2333 27.232 63.9346 27.4C63.6359 27.568 63.3979 27.806 63.2206 28.114C63.0526 28.422 62.9686 28.7953 62.9686 29.234C62.9686 29.6727 63.0526 30.046 63.2206 30.354C63.3979 30.662 63.6359 30.9 63.9346 31.068C64.2333 31.236 64.5693 31.32 64.9426 31.32C65.2879 31.32 65.6053 31.2407 65.8946 31.082C66.1933 30.914 66.4406 30.648 66.6366 30.284L68.3306 31.208C68.0506 31.8147 67.6166 32.286 67.0286 32.622C66.4406 32.9487 65.7499 33.112 64.9566 33.112ZM74.1251 25.356C74.7224 25.356 75.2544 25.4773 75.7211 25.72C76.1971 25.9533 76.5704 26.3173 76.8411 26.812C77.1117 27.2973 77.2471 27.9227 77.2471 28.688V33H75.0631V29.024C75.0631 28.4173 74.9277 27.9693 74.6571 27.68C74.3957 27.3907 74.0224 27.246 73.5371 27.246C73.1917 27.246 72.8791 27.3207 72.5991 27.47C72.3284 27.61 72.1137 27.8293 71.9551 28.128C71.8057 28.4267 71.7311 28.8093 71.7311 29.276V33H69.5471V22.612H71.7311V27.554L71.2411 26.924C71.5117 26.42 71.8991 26.0327 72.4031 25.762C72.9071 25.4913 73.4811 25.356 74.1251 25.356Z" fill="#FF6200"/></symbol>
	<symbol id="ChevronLeft" xmlns="http://www.w3.org/2000/svg" fill="none" viewBox="0 0 24 24" stroke="currentColor"><path stroke-linecap="round" stroke-linejoin="round" d="M15.75 19.5L8.25 12l7.5-7.5" /></symbol>
	<symbol id="ChevronRight" xmlns="http://www.w3.org/2000/svg" fill="none" viewBox="0 0 24 24" stroke="currentColor"><path stroke-linecap="round" stroke-linejoin="round" d="M8.25 4.5l7.5 7.5-7.5 7.5" /></symbol>
	<symbol id="ChevronUp" xmlns="http://www.w3.org/2000/svg" fill="none" viewBox="0 0 24 24" stroke="currentColor"><path stroke-linecap="round" stroke-linejoin="round" d="M4.5 15.75l7.5-7.5 7.5 7.5" /></symbol>	
	<symbol id="ChevronDown" xmlns="http://www.w3.org/2000/svg" fill="none" viewBox="0 0 24 24" stroke="currentColor"><path stroke-linecap="round" stroke-linejoin="round" d="M19.5 8.25l-7.5 7.5-7.5-7.5" /></symbol>
	<symbol id="QuestionMarkCircle" xmlns="http://www.w3.org/2000/svg" fill="none" viewBox="0 0 24 24" stroke="currentColor"><path stroke-linecap="round" stroke-linejoin="round" d="M9.879 7.519c1.171-1.025 3.071-1.025 4.242 0 1.172 1.025 1.172 2.687 0 3.712-.203.179-.43.326-.67.442-.745.361-1.45.999-1.45 1.827v.75M21 12a9 9 0 11-18 0 9 9 0 0118 0zm-9 5.25h.008v.008H12v-.008z" /></symbol>
	<symbol id="User" width="25" height="25" viewBox="0 0 25 25" fill="none" xmlns="http://www.w3.org/2000/svg"><path d="M22.5508 20.7031C21.0635 18.1318 18.7715 16.2881 16.0967 15.4141C17.4198 14.6264 18.4477 13.4263 19.0227 11.9978C19.5977 10.5694 19.6878 8.9918 19.2794 7.50719C18.8709 6.02257 17.9864 4.71308 16.7617 3.77981C15.537 2.84654 14.0398 2.34109 12.5 2.34109C10.9603 2.34109 9.46305 2.84654 8.23834 3.77981C7.01363 4.71308 6.12913 6.02257 5.72068 7.50719C5.31223 8.9918 5.40241 10.5694 5.97737 11.9978C6.55233 13.4263 7.58028 14.6264 8.90336 15.4141C6.22855 16.2871 3.93656 18.1309 2.44925 20.7031C2.39471 20.7921 2.35853 20.891 2.34286 20.9942C2.32718 21.0973 2.33232 21.2025 2.35797 21.3037C2.38362 21.4048 2.42927 21.4997 2.49222 21.5829C2.55516 21.6661 2.63413 21.7359 2.72447 21.7881C2.81481 21.8403 2.91469 21.8738 3.01821 21.8868C3.12173 21.8997 3.22679 21.8918 3.3272 21.8635C3.42762 21.8352 3.52135 21.7871 3.60286 21.722C3.68437 21.6568 3.75201 21.5761 3.80179 21.4844C5.64164 18.3047 8.89359 16.4063 12.5 16.4063C16.1065 16.4063 19.3584 18.3047 21.1983 21.4844C21.2481 21.5761 21.3157 21.6568 21.3972 21.722C21.4787 21.7871 21.5725 21.8352 21.6729 21.8635C21.7733 21.8918 21.8783 21.8997 21.9819 21.8868C22.0854 21.8738 22.1853 21.8403 22.2756 21.7881C22.3659 21.7359 22.4449 21.6661 22.5079 21.5829C22.5708 21.4997 22.6164 21.4048 22.6421 21.3037C22.6678 21.2025 22.6729 21.0973 22.6572 20.9942C22.6415 20.891 22.6054 20.7921 22.5508 20.7031ZM7.03129 9.375C7.03129 8.29339 7.35202 7.23606 7.95294 6.33673C8.55385 5.4374 9.40795 4.73645 10.4072 4.32254C11.4065 3.90862 12.5061 3.80032 13.5669 4.01133C14.6278 4.22234 15.6022 4.74319 16.367 5.50801C17.1318 6.27283 17.6527 7.24727 17.8637 8.3081C18.0747 9.36894 17.9664 10.4685 17.5525 11.4678C17.1386 12.4671 16.4376 13.3212 15.5383 13.9221C14.639 14.523 13.5817 14.8438 12.5 14.8438C11.0501 14.8422 9.66001 14.2655 8.63476 13.2403C7.60951 12.215 7.03284 10.8249 7.03129 9.375Z" fill="#727272"/></symbol>
	<symbol id="ShoppingCart" width="24" height="25" viewBox="0 0 24 25" fill="none" xmlns="http://www.w3.org/2000/svg"><path d="M6 2.5L3 6.5V20.5C3 21.0304 3.21071 21.5391 3.58579 21.9142C3.96086 22.2893 4.46957 22.5 5 22.5H19C19.5304 22.5 20.0391 22.2893 20.4142 21.9142C20.7893 21.5391 21 21.0304 21 20.5V6.5L18 2.5H6Z" stroke="#727272" stroke-width="2" stroke-linecap="round" stroke-linejoin="round"/><path d="M3 6.5H21" stroke="#727272" stroke-width="2" stroke-linecap="round" stroke-linejoin="round"/><path d="M16 10.5C16 11.5609 15.5786 12.5783 14.8284 13.3284C14.0783 14.0786 13.0609 14.5 12 14.5C10.9391 14.5 9.92172 14.0786 9.17157 13.3284C8.42143 12.5783 8 11.5609 8 10.5" stroke="#727272" stroke-width="2" stroke-linecap="round" stroke-linejoin="round"/></symbol>
	<symbol id="Bars3" xmlns="http://www.w3.org/2000/svg" viewBox="0 0 20 20" stroke="currentColor" fill="none"><path fill-rule="evenodd" clip-rule="evenodd" d="M2.5 5.00033C2.5 4.54009 2.8731 4.16699 3.33333 4.16699H16.6667C17.1269 4.16699 17.5 4.54009 17.5 5.00033C17.5 5.46056 17.1269 5.83366 16.6667 5.83366H3.33333C2.8731 5.83366 2.5 5.46056 2.5 5.00033ZM2.5 10.0003C2.5 9.54009 2.8731 9.16699 3.33333 9.16699H16.6667C17.1269 9.16699 17.5 9.54009 17.5 10.0003C17.5 10.4606 17.1269 10.8337 16.6667 10.8337H3.33333C2.8731 10.8337 2.5 10.4606 2.5 10.0003ZM2.5 15.0003C2.5 14.5401 2.8731 14.167 3.33333 14.167H16.6667C17.1269 14.167 17.5 14.5401 17.5 15.0003C17.5 15.4606 17.1269 15.8337 16.6667 15.8337H3.33333C2.8731 15.8337 2.5 15.4606 2.5 15.0003Z" fill="currentColor"/></symbol>
	<symbol id="Heart" xmlns="http://www.w3.org/2000/svg" viewBox="0 0 24 24" stroke="currentColor"><path stroke-linecap="round" stroke-linejoin="round" d="M21 8.25c0-2.485-2.099-4.5-4.688-4.5-1.935 0-3.597 1.126-4.312 2.733-.715-1.607-2.377-2.733-4.313-2.733C5.1 3.75 3 5.765 3 8.25c0 7.22 9 12 9 12s9-4.78 9-12z" /></symbol>
	<symbol id="MagnifyingGlass" width="20" height="20" viewBox="0 0 20 20" fill="none" xmlns="http://www.w3.org/2000/svg"><path fill-rule="evenodd" clip-rule="evenodd" d="M8.33366 3.33366C5.57223 3.33366 3.33366 5.57223 3.33366 8.33366C3.33366 11.0951 5.57223 13.3337 8.33366 13.3337C11.0951 13.3337 13.3337 11.0951 13.3337 8.33366C13.3337 5.57223 11.0951 3.33366 8.33366 3.33366ZM1.66699 8.33366C1.66699 4.65176 4.65176 1.66699 8.33366 1.66699C12.0156 1.66699 15.0003 4.65176 15.0003 8.33366C15.0003 9.87425 14.4778 11.2928 13.6002 12.4217L18.0896 16.9111C18.415 17.2365 18.415 17.7641 18.0896 18.0896C17.7641 18.415 17.2365 18.415 16.9111 18.0896L12.4217 13.6002C11.2928 14.4778 9.87425 15.0003 8.33366 15.0003C4.65176 15.0003 1.66699 12.0156 1.66699 8.33366Z" fill="currentColor"/></symbol>
	<symbol id="XMark" xmlns="http://www.w3.org/2000/svg" fill="none" viewBox="0 0 24 24" stroke="currentColor"><path stroke-linecap="round" stroke-linejoin="round" d="M6 18L18 6M6 6l12 12" /></symbol>
	<symbol id="Plus" xmlns="http://www.w3.org/2000/svg" fill="none" viewBox="0 0 24 24" stroke="currentColor"><path stroke-linecap="round" stroke-linejoin="round" d="M12 4.5v15m7.5-7.5h-15" /></symbol>
	<symbol id="Minus" xmlns="http://www.w3.org/2000/svg" fill="none" viewBox="0 0 24 24" stroke="currentColor"><path stroke-linecap="round" stroke-linejoin="round" d="M19.5 12h-15" /></symbol>
	<symbol id="MapPin" xmlns="http://www.w3.org/2000/svg" fill="none" viewBox="0 0 24 24" stroke="currentColor"><path stroke-linecap="round" stroke-linejoin="round" d="M15 10.5a3 3 0 11-6 0 3 3 0 016 0z" /><path stroke-linecap="round" stroke-linejoin="round" d="M19.5 10.5c0 7.142-7.5 11.25-7.5 11.25S4.5 17.642 4.5 10.5a7.5 7.5 0 1115 0z" /></symbol>	
	<symbol id="Phone" xmlns="http://www.w3.org/2000/svg" fill="none" viewBox="0 0 24 24" stroke="currentColor"><path stroke-linecap="round" stroke-linejoin="round" d="M2.25 6.75c0 8.284 6.716 15 15 15h2.25a2.25 2.25 0 002.25-2.25v-1.372c0-.516-.351-.966-.852-1.091l-4.423-1.106c-.44-.11-.902.055-1.173.417l-.97 1.293c-.282.376-.769.542-1.21.38a12.035 12.035 0 01-7.143-7.143c-.162-.441.004-.928.38-1.21l1.293-.97c.363-.271.527-.734.417-1.173L6.963 3.102a1.125 1.125 0 00-1.091-.852H4.5A2.25 2.25 0 002.25 4.5v2.25z" /></symbol>
	<symbol id="Elo" xmlns="http://www.w3.org/2000/svg" viewBox="0 0 40 14" stroke="currentColor" fill="none"><path d="M6.57655 3.09309C6.98496 2.95495 7.4234 2.88288 7.87985 2.88288C9.87385 2.88288 11.5375 4.3003 11.9159 6.18018L14.7387 5.6036C14.0901 2.40841 11.2672 0 7.87985 0C7.10508 0 6.36033 0.126126 5.66364 0.36036L6.57655 3.09309Z" fill="currentColor"/><path d="M3.24323 12.2463L5.15314 10.0841C4.30029 9.32733 3.76576 8.22823 3.76576 6.997C3.76576 5.77178 4.30029 4.66667 5.15314 3.91592L3.24323 1.75977C1.79579 3.04505 0.882874 4.91292 0.882874 7.00301C0.882874 9.08709 1.79579 10.961 3.24323 12.2463Z" fill="currentColor"/><path d="M11.9159 7.82617C11.5315 9.70605 9.87387 11.1175 7.87988 11.1175C7.42342 11.1175 6.98498 11.0454 6.57057 10.9073L5.65765 13.64C6.35435 13.8742 7.1051 14.0003 7.87988 14.0003C11.2673 14.0003 14.0901 11.5979 14.7387 8.40275L11.9159 7.82617Z" fill="currentColor"/><path d="M24.1441 9.75962C23.6757 10.2161 23.045 10.4924 22.3484 10.4803C21.8679 10.4743 21.4234 10.3302 21.0511 10.0899L20.1141 11.5794C20.7568 11.9818 21.5075 12.2221 22.3243 12.2341C23.5075 12.2521 24.5886 11.7836 25.3754 11.0209L24.1441 9.75962ZM22.4505 3.68755C20.0961 3.65151 18.1502 5.5374 18.1141 7.89175C18.1021 8.77463 18.3544 9.60346 18.8048 10.2881L26.5405 6.97884C26.1081 5.12298 24.4505 3.72358 22.4505 3.68755ZM19.8859 8.22809C19.8739 8.13199 19.8679 8.02989 19.8679 7.92779C19.8919 6.5404 21.033 5.42929 22.4204 5.45331C23.1772 5.46532 23.8499 5.80767 24.3003 6.34821L19.8859 8.22809ZM28.973 1.76562V10.0119L30.4024 10.6065L29.7237 12.2341L28.3063 11.6455C27.988 11.5074 27.7718 11.2972 27.6096 11.0569C27.4535 10.8167 27.3333 10.4803 27.3333 10.0359V1.76562H28.973Z" fill="currentColor"/><path d="M34.1321 5.57925C34.3844 5.49516 34.6487 5.45312 34.9309 5.45312C36.1502 5.45312 37.1592 6.31798 37.3934 7.46513L39.1171 7.11078C38.7207 5.15882 36.997 3.69336 34.9309 3.69336C34.4565 3.69336 34 3.77144 33.5796 3.90958L34.1321 5.57925ZM32.0961 11.1588L33.2613 9.84351C32.7387 9.38105 32.4144 8.70837 32.4144 7.95762C32.4144 7.20687 32.7448 6.5342 33.2613 6.07774L32.0961 4.76243C31.2132 5.54321 30.6547 6.69036 30.6547 7.96363C30.6547 9.2369 31.2132 10.378 32.0961 11.1588ZM37.3934 8.46813C37.1592 9.61528 36.1442 10.4801 34.9309 10.4801C34.6547 10.4801 34.3844 10.4321 34.1321 10.348L33.5736 12.0177C34 12.1618 34.4565 12.2399 34.9309 12.2399C36.997 12.2399 38.7207 10.7744 39.1171 8.82249L37.3934 8.46813Z" fill="currentColor"/></symbol>
	<symbol id="Mastercard" xmlns="http://www.w3.org/2000/svg" viewBox="0 0 26 20" fill="none" stroke="currentColor"><g clip-path="url(#clip0_81_156)"><path d="M4.77191 19.9552V18.6263C4.77191 18.1167 4.46174 17.7846 3.95265 17.7846C3.68527 17.7846 3.39918 17.8734 3.19971 18.159C3.04463 17.9151 2.82538 17.7846 2.49116 17.7846C2.36689 17.7793 2.24323 17.8048 2.13124 17.8589C2.01926 17.913 1.92244 17.9941 1.84944 18.0948V17.8274H1.42859V19.9536H1.84944V18.737C1.84944 18.3627 2.07083 18.1836 2.381 18.1836C2.69116 18.1836 2.86816 18.383 2.86816 18.737V19.9552H3.28902V18.737C3.28902 18.3627 3.51041 18.1836 3.82057 18.1836C4.13073 18.1836 4.30773 18.383 4.30773 18.737V19.9552H4.77191ZM11.6821 17.8509H10.9067V17.2092H10.4869V17.8509H10.0441V18.2253H10.4869V19.2242C10.4869 19.7114 10.6639 19.9996 11.1954 19.9996C11.3968 19.9954 11.5941 19.9422 11.7703 19.8445L11.6371 19.4702C11.5177 19.5449 11.3791 19.5833 11.2382 19.5809C11.0168 19.5809 10.9061 19.4477 10.9061 19.2263V18.2082H11.6815V17.8536L11.6821 17.8509ZM15.6243 17.7846C15.5097 17.7821 15.3964 17.8093 15.2954 17.8637C15.1945 17.918 15.1093 17.9977 15.0484 18.0948V17.8274H14.6275V19.9536H15.0484V18.7595C15.0484 18.405 15.2254 18.1836 15.5136 18.1836C15.6109 18.1875 15.7074 18.2024 15.8013 18.2279L15.9345 17.829C15.8329 17.8034 15.729 17.7885 15.6243 17.7846ZM9.66656 18.006C9.44517 17.8509 9.13501 17.7846 8.80292 17.7846C8.27137 17.7846 7.93928 18.0285 7.93928 18.4493C7.93928 18.8039 8.18314 19.0028 8.64784 19.0697L8.86923 19.0916C9.11308 19.136 9.26816 19.2247 9.26816 19.3354C9.26816 19.4905 9.09116 19.6028 8.75854 19.6028C8.50456 19.608 8.2558 19.5303 8.04998 19.3814L7.82859 19.7135C8.13875 19.9349 8.51522 19.9809 8.73768 19.9809C9.358 19.9809 9.69009 19.6932 9.69009 19.2943C9.69009 18.9199 9.42271 18.7408 8.95907 18.6739L8.73768 18.652C8.53822 18.6301 8.36335 18.5632 8.36335 18.4306C8.36335 18.2755 8.54036 18.1632 8.78421 18.1632C9.05159 18.1632 9.31576 18.2739 9.44891 18.3402L9.66656 18.006ZM16.0896 18.8921C16.0896 19.5338 16.5104 19.9996 17.197 19.9996C17.5072 19.9996 17.7286 19.9333 17.95 19.7558L17.7286 19.4237C17.5718 19.5506 17.3768 19.6209 17.1751 19.6231C16.8008 19.6231 16.5104 19.3354 16.5104 18.9146C16.5104 18.4937 16.797 18.2082 17.1751 18.2082C17.3768 18.2104 17.5718 18.2807 17.7286 18.4076L17.95 18.0755C17.7286 17.8985 17.5072 17.8317 17.197 17.8317C16.5323 17.7873 16.0896 18.2525 16.0896 18.8948V18.8921ZM13.1216 17.7846C12.5013 17.7846 12.0805 18.2274 12.0805 18.8921C12.0805 19.5568 12.5232 19.9996 13.1655 19.9996C13.4779 20.0062 13.7831 19.9046 14.0291 19.7119L13.8077 19.4017C13.6298 19.5396 13.4125 19.6172 13.1874 19.6231C12.8997 19.6231 12.5896 19.4461 12.5457 19.0697H14.1184V18.8927C14.1184 18.2279 13.7195 17.7852 13.1216 17.7852V17.7846ZM13.0997 18.1836C13.4099 18.1836 13.6313 18.383 13.6532 18.7151H12.5019C12.5682 18.405 12.7692 18.1836 13.0997 18.1836ZM7.36335 18.8921V17.829H6.94249V18.0964C6.78741 17.8969 6.56816 17.7862 6.25586 17.7862C5.658 17.7862 5.21469 18.2515 5.21469 18.8937C5.21469 19.536 5.65747 20.0012 6.25586 20.0012C6.56602 20.0012 6.78741 19.8905 6.94249 19.691V19.9584H7.36335V18.8921ZM5.658 18.8921C5.658 18.4932 5.90185 18.1836 6.32271 18.1836C6.72164 18.1836 6.96442 18.4937 6.96442 18.8921C6.96442 19.313 6.69704 19.6007 6.32271 19.6007C5.90185 19.6226 5.658 19.2905 5.658 18.8921ZM22.0259 17.7846C21.9113 17.7821 21.798 17.8093 21.697 17.8637C21.5961 17.918 21.5109 17.9977 21.45 18.0948V17.8274H21.0291V19.9536H21.4495V18.7595C21.4495 18.405 21.6265 18.1836 21.9147 18.1836C22.012 18.1875 22.1085 18.2024 22.2024 18.2279L22.3355 17.829C22.234 17.8034 22.13 17.7885 22.0254 17.7846H22.0259ZM20.3869 18.8921V17.829H19.966V18.0964C19.8109 17.8969 19.5917 17.7862 19.2794 17.7862C18.6815 17.7862 18.2382 18.2515 18.2382 18.8937C18.2382 19.536 18.681 20.0012 19.2794 20.0012C19.5896 20.0012 19.8109 19.8905 19.966 19.691V19.9584H20.3869V18.8921ZM18.6815 18.8921C18.6815 18.4932 18.9254 18.1836 19.3462 18.1836C19.7452 18.1836 19.988 18.4937 19.988 18.8921C19.988 19.313 19.7206 19.6007 19.3462 19.6007C18.9254 19.6226 18.6815 19.2905 18.6815 18.8921ZM24.6618 18.8921V16.9873H24.2409V18.0948C24.0858 17.8953 23.8666 17.7846 23.5543 17.7846C22.9564 17.7846 22.5131 18.2499 22.5131 18.8921C22.5131 19.5344 22.9559 19.9996 23.5543 19.9996C23.8644 19.9996 24.0858 19.8889 24.2409 19.6894V19.9568H24.6618V18.8921ZM22.9564 18.8921C22.9564 18.4932 23.2003 18.1836 23.6211 18.1836C24.02 18.1836 24.2628 18.4937 24.2628 18.8921C24.2628 19.313 23.9954 19.6007 23.6211 19.6007C23.1997 19.6231 22.9559 19.291 22.9559 18.8921H22.9564Z" fill="currentColor"/><path d="M9.95478 7.97327C9.95505 6.76731 10.2281 5.57704 10.7536 4.49159C11.279 3.40613 12.0433 2.45361 12.989 1.70535C11.8128 0.780601 10.4002 0.205442 8.9126 0.045623C7.42499 -0.114196 5.92242 0.147775 4.57667 0.801588C3.23091 1.4554 2.09627 2.47468 1.30244 3.74289C0.508619 5.01111 0.0876465 6.47709 0.0876465 7.97327C0.0876465 9.46944 0.508619 10.9354 1.30244 12.2036C2.09627 13.4719 3.23091 14.4911 4.57667 15.1449C5.92242 15.7988 7.42499 16.0607 8.9126 15.9009C10.4002 15.7411 11.8128 15.1659 12.989 14.2412C12.0433 13.4929 11.279 12.5404 10.7536 11.4549C10.2281 10.3695 9.95505 9.17922 9.95478 7.97327Z" fill="currentColor"/><path d="M25.9019 7.97297C25.9029 9.46805 25.4832 10.9333 24.6907 12.201C23.8982 13.4688 22.7648 14.4879 21.4203 15.1418C20.0758 15.7957 18.5744 16.0579 17.0879 15.8986C15.6013 15.7393 14.1896 15.1648 13.0142 14.2409C13.9601 13.4928 14.7245 12.5403 15.25 11.4548C15.7755 10.3693 16.0485 9.17898 16.0485 7.97297C16.0485 6.76696 15.7755 5.5766 15.25 4.4911C14.7245 3.4056 13.9601 2.45312 13.0142 1.70506C14.1896 0.781104 15.6013 0.20662 17.0879 0.0473072C18.5744 -0.112005 20.0758 0.150287 21.4203 0.804186C22.7648 1.45808 23.8982 2.47719 24.6907 3.74493C25.4832 5.01268 25.9029 6.47789 25.9019 7.97297Z" fill="currentColor" fill-opacity="0.4"/><path fill-rule="evenodd" clip-rule="evenodd" d="M13.0141 1.70508H12.989C12.0432 2.45333 11.279 3.40585 10.7536 4.49131C10.2281 5.57677 9.95504 6.76704 9.95477 7.97299C9.95504 9.17894 10.2281 10.3692 10.7536 11.4547C11.279 12.5401 12.0433 13.4926 12.989 14.2409H13.0141C13.0141 14.2409 13.0141 14.2409 13.0141 14.2409C13.9601 13.4928 14.7245 12.5404 15.25 11.4549C15.7755 10.3694 16.0484 9.17899 16.0484 7.97299C16.0484 6.76698 15.7755 5.57661 15.25 4.49111C14.7245 3.40561 13.9601 2.45314 13.0141 1.70508Z" fill="currentColor" fill-opacity="0.6"/></g><defs><clipPath id="clip0_81_156"><rect width="25.8027" height="20" fill="white" transform="translate(0.0986328)"/></clipPath></defs></symbol>
	<symbol id="Visa" xmlns="http://www.w3.org/2000/svg" viewBox="0 0 40 12" fill="none" stroke="currentColor"><path d="M14.2514 11.8628L16.2325 0.237305H19.4012L17.4187 11.8628H14.2514Z" fill="currentColor"/><path d="M28.8667 0.488266C28.2389 0.252744 27.2552 0 26.0267 0C22.8956 0 20.6902 1.57674 20.6714 3.83653C20.6537 5.50698 22.2459 6.43886 23.4479 6.99494C24.6813 7.56486 25.0959 7.92824 25.09 8.437C25.0821 9.21631 24.105 9.57221 23.1942 9.57221C21.926 9.57221 21.2522 9.39601 20.2115 8.96208L19.8031 8.77728L19.3585 11.3797C20.0986 11.7043 21.4671 11.9854 22.8882 12C26.2191 12 28.3815 10.4413 28.4061 8.02807C28.4179 6.70556 27.5737 5.69921 25.7455 4.86948C24.638 4.33169 23.9597 3.97282 23.9669 3.42826C23.9669 2.94504 24.541 2.42833 25.7816 2.42833C26.8177 2.41223 27.5684 2.6382 28.1533 2.87372L28.4372 3.00787L28.8667 0.488266Z" fill="currentColor"/><path d="M37.0208 0.237305H34.5723C33.8138 0.237305 33.2461 0.444322 32.913 1.20137L28.2071 11.8552H31.5345C31.5345 11.8552 32.0785 10.4228 32.2015 10.1082C32.5651 10.1082 35.7976 10.1132 36.2597 10.1132C36.3545 10.5202 36.6452 11.8552 36.6452 11.8552H39.5855L37.0208 0.237305ZM33.136 7.74409C33.3981 7.07428 34.3985 4.49428 34.3985 4.49428C34.3798 4.52522 34.6587 3.82121 34.8186 3.38473L35.0328 4.38703C35.0328 4.38703 35.6395 7.16205 35.7663 7.74391H33.136V7.74409Z" fill="currentColor"/><path d="M0.45503 0.237305L0.414551 0.479138C1.66716 0.782359 2.78593 1.22123 3.76542 1.76717L6.57706 11.8441L9.92966 11.8404L14.9183 0.237305H11.5615L8.45929 8.16502L8.12885 6.55384C8.11337 6.50406 8.09654 6.4542 8.07932 6.40422L7.00087 1.21879C6.80912 0.482646 6.25282 0.262959 5.56461 0.237305H0.45503Z" fill="currentColor"/></symbol>		
	<symbol id="Pix" viewBox="0 0 512 512" xmlns="http://www.w3.org/2000/svg" fill="none" stroke="currentColor"> <defs/> <g fill="currentColor" fill-rule="evenodd"> <path d="M393.072 391.897c-20.082 0-38.969-7.81-53.176-22.02l-77.069-77.067c-5.375-5.375-14.773-5.395-20.17 0l-76.784 76.786c-14.209 14.207-33.095 22.019-53.179 22.019h-9.247l97.521 97.52c30.375 30.375 79.614 30.375 109.988 0l97.239-97.238h-15.123zm-105.049 74.327c-8.55 8.53-19.93 13.25-32.05 13.25h-.02c-12.12 0-23.522-4.721-32.05-13.25l-56.855-56.855c7.875-4.613 15.165-10.248 21.758-16.84l63.948-63.948 64.23 64.23c7.637 7.66 16.188 14.013 25.478 18.952l-54.439 54.46zM310.958 22.78c-30.374-30.374-79.613-30.374-109.988 0l-97.52 97.52h9.247c20.082 0 38.97 7.834 53.178 22.02l76.784 76.785c5.57 5.592 14.622 5.57 20.17 0l77.069-77.068c14.207-14.187 33.094-22.02 53.176-22.02h15.123l-97.239-97.237zm6.028 96.346l-64.23 64.23-63.97-63.97c-6.593-6.592-13.86-12.206-21.736-16.818l56.853-56.877c17.69-17.645 46.476-17.668 64.121 0l54.44 54.461c-9.292 4.961-17.842 11.315-25.479 18.974h.001z"/> <path d="M489.149 200.97l-58.379-58.377h-37.706c-13.838 0-27.394 5.635-37.185 15.426l-77.068 77.069c-7.202 7.18-16.623 10.77-26.067 10.77-9.443 0-18.885-3.59-26.066-10.77l-76.785-76.785c-9.792-9.814-23.346-15.427-37.207-15.427h-31.81L22.78 200.97c-30.374 30.375-30.374 79.614 0 109.988l58.095 58.074 31.81.021c13.86 0 27.416-5.635 37.208-15.426l76.784-76.764c13.925-13.947 38.208-13.924 52.133-.02l77.068 77.066c9.791 9.792 23.346 15.405 37.185 15.405h37.706l58.379-58.356c30.374-30.374 30.374-79.613 0-109.988zm-362.19 129.724c-3.763 3.786-8.942 5.917-14.273 5.917H94.302l-48.59-48.564c-17.689-17.69-17.689-46.476 0-64.143L94.3 175.296h18.385c5.331 0 10.51 2.154 14.295 5.918l74.74 74.74-74.761 74.74zm339.257-42.647l-48.848 48.87h-24.305c-5.309 0-10.508-2.155-14.251-5.92l-75.023-75.043 75.023-75.023c3.743-3.764 8.942-5.918 14.252-5.918h24.304l48.847 48.891c8.573 8.551 13.273 19.93 13.273 32.05 0 12.141-4.7 23.52-13.273 32.093z"/> </g> </symbol>
	<symbol id="Facebook" xmlns="http://www.w3.org/2000/svg" viewBox="0 0 24 24" stroke="currentColor" fill="none" stroke-linecap="round" stroke-linejoin="round"><path stroke="none" d="M0 0h24v24H0z" fill="none" /><path d="M7 10v4h3v7h4v-7h3l1 -4h-4v-2a1 1 0 0 1 1 -1h3v-4h-3a5 5 0 0 0 -5 5v2h-3" /></symbol>
	<symbol id="Instagram" xmlns="http://www.w3.org/2000/svg" viewBox="0 0 24 24" stroke="currentColor" fill="none" stroke-linecap="round" stroke-linejoin="round"><path stroke="none" d="M0 0h24v24H0z" fill="none" /><rect x="4" y="4" width="16" height="16" rx="4" /><circle cx="12" cy="12" r="3" /><line x1="16.5" y1="7.5" x2="16.5" y2="7.501" /></symbol>
	<symbol id="Tiktok" xmlns="http://www.w3.org/2000/svg" viewBox="0 0 24 24" stroke="currentColor" fill="none" stroke-linecap="round" stroke-linejoin="round"><path stroke="none" d="M0 0h24v24H0z" fill="none" /><path d="M9 12a4 4 0 1 0 4 4v-12a5 5 0 0 0 5 5" /></symbol>
	<symbol id="Truck" xmlns="http://www.w3.org/2000/svg"  viewBox="0 0 36 28" stroke="currentColor" fill="none"><path d="M14 22.333C14 24.174 12.5077 25.6663 10.6667 25.6663C8.82576 25.6663 7.33337 24.174 7.33337 22.333M14 22.333C14 20.4921 12.5077 18.9997 10.6667 18.9997C8.82576 18.9997 7.33337 20.4921 7.33337 22.333M14 22.333H24M7.33337 22.333H4.00004V15.6663M30.6667 22.333C30.6667 24.174 29.1743 25.6663 27.3334 25.6663C25.4924 25.6663 24 24.174 24 22.333M30.6667 22.333C30.6667 20.4921 29.1743 18.9997 27.3334 18.9997C25.4924 18.9997 24 20.4921 24 22.333M30.6667 22.333H34V12.333M2.33337 2.33301H20.6667V22.333M34 12.333H20.6667M34 12.333L29 3.99967H20.6667M4.00004 8.99967H10.6667" stroke-linecap="round" stroke-linejoin="round"/></symbol>
	<symbol id="Discount" xmlns="http://www.w3.org/2000/svg" viewBox="0 0 34 34" stroke="currentColor" fill="none"><path d="M12 21.9998L22 11.9998M13.6667 12.8332C13.6667 13.2934 13.2936 13.6665 12.8333 13.6665C12.3731 13.6665 12 13.2934 12 12.8332C12 12.3729 12.3731 11.9998 12.8333 11.9998C13.2936 11.9998 13.6667 12.3729 13.6667 12.8332ZM22 21.1665C22 21.6267 21.6269 21.9998 21.1667 21.9998C20.7064 21.9998 20.3333 21.6267 20.3333 21.1665C20.3333 20.7063 20.7064 20.3332 21.1667 20.3332C21.6269 20.3332 22 20.7063 22 21.1665ZM5.33334 8.99979C5.33334 8.02733 5.71965 7.0947 6.40728 6.40707C7.09491 5.71943 8.02755 5.33313 9.00001 5.33313H10.6667C11.6348 5.33257 12.5635 4.94913 13.25 4.26646L14.4167 3.09979C14.7574 2.75713 15.1625 2.4852 15.6087 2.29964C16.0549 2.11408 16.5334 2.01855 17.0167 2.01855C17.4999 2.01855 17.9784 2.11408 18.4246 2.29964C18.8708 2.4852 19.2759 2.75713 19.6167 3.09979L20.7833 4.26646C21.4699 4.94913 22.3985 5.33257 23.3667 5.33313H25.0333C26.0058 5.33313 26.9384 5.71943 27.6261 6.40707C28.3137 7.0947 28.7 8.02733 28.7 8.99979V10.6665C28.7006 11.6346 29.084 12.5633 29.7667 13.2498L30.9333 14.4165C31.276 14.7572 31.5479 15.1623 31.7335 15.6085C31.9191 16.0547 32.0146 16.5332 32.0146 17.0165C32.0146 17.4997 31.9191 17.9782 31.7335 18.4244C31.5479 18.8706 31.276 19.2757 30.9333 19.6165L29.7667 20.7831C29.084 21.4696 28.7006 22.3983 28.7 23.3665V25.0331C28.7 26.0056 28.3137 26.9382 27.6261 27.6259C26.9384 28.3135 26.0058 28.6998 25.0333 28.6998H23.3667C22.3985 28.7003 21.4699 29.0838 20.7833 29.7665L19.6167 30.9331C19.2759 31.2758 18.8708 31.5477 18.4246 31.7333C17.9784 31.9188 17.4999 32.0144 17.0167 32.0144C16.5334 32.0144 16.0549 31.9188 15.6087 31.7333C15.1625 31.5477 14.7574 31.2758 14.4167 30.9331L13.25 29.7665C12.5635 29.0838 11.6348 28.7003 10.6667 28.6998H9.00001C8.02755 28.6998 7.09491 28.3135 6.40728 27.6259C5.71965 26.9382 5.33334 26.0056 5.33334 25.0331V23.3665C5.33279 22.3983 4.94934 21.4696 4.26667 20.7831L3.10001 19.6165C2.75734 19.2757 2.48541 18.8706 2.29985 18.4244C2.11429 17.9782 2.01877 17.4997 2.01877 17.0165C2.01877 16.5332 2.11429 16.0547 2.29985 15.6085C2.48541 15.1623 2.75734 14.7572 3.10001 14.4165L4.26667 13.2498C4.94934 12.5633 5.33279 11.6346 5.33334 10.6665V8.99979Z" stroke-linecap="round" stroke-linejoin="round"/></symbol>
	<symbol id="Return" xmlns="http://www.w3.org/2000/svg" viewBox="0 0 34 30" stroke="currentColor" fill="none"><path d="M32 6.66699H2M32 6.66699L27 11.667M32 6.66699L27 1.66699M7 28.3337L2 23.3337M2 23.3337L7 18.3337M2 23.3337H32" stroke-linecap="round" stroke-linejoin="round"/></symbol>			
	<symbol id="CreditCard" xmlns="http://www.w3.org/2000/svg" viewBox="0 0 34 28" stroke="currentColor" fill="none"><path d="M2 10.6663H32M8.66667 18.9997H8.68333M15.3333 18.9997H18.6667M7 2.33301H27C29.7614 2.33301 32 4.57158 32 7.33301V20.6663C32 23.4278 29.7614 25.6663 27 25.6663H7C4.23858 25.6663 2 23.4278 2 20.6663V7.33301C2 4.57158 4.23858 2.33301 7 2.33301Z" stroke-linecap="round" stroke-linejoin="round"/></symbol>		
	<symbol id="Deco" xmlns="http://www.w3.org/2000/svg" viewBox="0 0 58 20" stroke="currentColor" fill="none"><path d="M49.5359 16.9432C47.3666 16.9432 46.9948 14.8019 47.6797 12.7178C48.2221 11.0615 49.5066 9.31991 51.4201 9.31991C53.676 9.31991 53.9039 11.6038 53.247 13.6026C52.6753 15.3162 51.3908 16.9432 49.5359 16.9432ZM48.879 19.9973C52.6473 19.9973 56.0159 17.9133 57.3578 14.1449C58.7569 10.1767 57.1859 6.2085 52.0477 6.2085C47.9369 6.2085 44.7962 8.77758 43.5969 12.1755C42.2551 16.0011 43.7115 19.9973 48.879 19.9973ZM36.3747 19.9973C37.8591 19.9973 39.3729 19.6829 40.4282 19.2271C40.8 18.1998 40.828 17.2004 40.5428 16.201C39.8006 16.4862 38.7732 16.7727 37.7165 16.7727C34.861 16.7727 34.6051 14.6606 35.2048 12.8617C35.8617 10.9496 37.574 9.40786 40.287 9.40786C41.0012 9.40786 41.6861 9.52246 42.1138 9.77963C42.856 8.78025 43.2838 7.78086 43.3704 6.7535C42.7428 6.46834 41.6861 6.21117 40.3163 6.21117C35.863 6.21117 32.3505 8.80956 31.0953 12.406C29.896 15.8039 30.8101 20 36.3774 20L36.3747 19.9973ZM21.0442 11.8037C21.8143 10.0901 23.0136 9.09206 24.5846 9.09206C25.9838 9.09206 26.2116 9.86225 25.9838 10.4619C25.6413 11.2894 24.47 11.8037 21.0442 11.8037ZM22.2714 19.9973C23.7278 19.9973 25.7826 19.7122 27.4962 18.8554C27.7813 17.9133 27.7534 16.9712 27.4389 15.9998C26.3542 16.5421 24.8405 16.8566 23.4707 16.8566C21.4439 16.8566 20.3299 16.1997 20.3592 14.5447C25.8972 14.6873 28.7807 13.6879 29.7228 11.2334C30.6649 8.7496 29.0379 6.2085 25.1829 6.2085C21.0721 6.2085 18.046 9.14935 16.932 12.3181C15.7621 15.6867 16.5043 19.9973 22.2701 19.9973H22.2714ZM5.72293 19.9973C9.52059 19.9973 11.6806 18.2557 14.1924 12.9177C15.5622 9.97684 16.7335 7.09329 18.0753 4.23905L19.6743 4.7534C20.1021 4.89598 20.3313 4.6388 20.1314 4.23905L18.1899 0.270827C18.0473 -0.0143302 17.7329 -0.0436454 17.533 0.0429678L12.708 1.86984C12.3082 2.01242 12.3362 2.38419 12.7359 2.49745L14.1631 2.95451C12.9931 5.6102 11.5367 9.60641 10.3654 12.1182C9.05155 14.9165 8.39595 16.8859 6.16933 16.8859C3.9427 16.8859 3.57093 15.1443 4.51301 12.6605C5.59768 9.77697 7.42455 8.92016 9.5086 9.51979C10.0802 8.72028 10.508 7.52103 10.6785 6.43636C10.0789 6.26447 9.36469 6.2085 8.76639 6.2085C5.3978 6.2085 2.05719 7.95009 0.687373 11.6038C-1.0822 16.3143 0.554122 19.9973 5.7216 19.9973H5.72293Z" fill="currentColor"/></symbol>
	<symbol id="Discord" xmlns="http://www.w3.org/2000/svg" viewBox="0 0 127.14 96.36" stroke="currentColor" fill="none"><g id="图层_2" data-name="图层 2"><g id="Discord_Logos" data-name="Discord Logos"><g id="Discord_Logo_-_Large_-_White" data-name="Discord Logo - Large - White"><path class="cls-1" d="M107.7,8.07A105.15,105.15,0,0,0,81.47,0a72.06,72.06,0,0,0-3.36,6.83A97.68,97.68,0,0,0,49,6.83,72.37,72.37,0,0,0,45.64,0,105.89,105.89,0,0,0,19.39,8.09C2.79,32.65-1.71,56.6.54,80.21h0A105.73,105.73,0,0,0,32.71,96.36,77.7,77.7,0,0,0,39.6,85.25a68.42,68.42,0,0,1-10.85-5.18c.91-.66,1.8-1.34,2.66-2a75.57,75.57,0,0,0,64.32,0c.87.71,1.76,1.39,2.66,2a68.68,68.68,0,0,1-10.87,5.19,77,77,0,0,0,6.89,11.1A105.25,105.25,0,0,0,126.6,80.22h0C129.24,52.84,122.09,29.11,107.7,8.07ZM42.45,65.69C36.18,65.69,31,60,31,53s5-12.74,11.43-12.74S54,46,53.89,53,48.84,65.69,42.45,65.69Zm42.24,0C78.41,65.69,73.25,60,73.25,53s5-12.74,11.44-12.74S96.23,46,96.12,53,91.08,65.69,84.69,65.69Z"/></g></g></g></symbol>
	<symbol id="FilterList" xmlns="http://www.w3.org/2000/svg" viewBox="0 0 16 16" fill="none"><path d="M6.66667 12H9.33333V10.6667H6.66667V12ZM2 4V5.33333H14V4H2ZM4 8.66667H12V7.33333H4V8.66667Z" fill="currentColor"/></symbol>
	<symbol id="ChevronUp" xmlns="http://www.w3.org/2000/svg" viewBox="0 0 16 16" stroke="currentColor" fill="none"><path fill-rule="evenodd" clip-rule="evenodd" d="M7.52851 5.52827C7.78886 5.26792 8.21097 5.26792 8.47132 5.52827L12.4713 9.52827C12.7317 9.78862 12.7317 10.2107 12.4713 10.4711C12.211 10.7314 11.7889 10.7314 11.5285 10.4711L7.99992 6.94248L4.47132 10.4711C4.21097 10.7314 3.78886 10.7314 3.52851 10.4711C3.26816 10.2107 3.26816 9.78862 3.52851 9.52827L7.52851 5.52827Z" fill="black"/></symbol>
	<symbol id="Trash" width="20" height="20" viewBox="0 0 20 20" fill="none" xmlns="http://www.w3.org/2000/svg"><path fill-rule="evenodd" clip-rule="evenodd" d="M7.15482 2.15483C7.46738 1.84227 7.89131 1.66667 8.33333 1.66667H11.6667C12.1087 1.66667 12.5326 1.84227 12.8452 2.15483C13.1577 2.46739 13.3333 2.89131 13.3333 3.33334V5H15.8236C15.8295 4.99994 15.8353 4.99994 15.8412 5H16.6667C17.1269 5 17.5 5.3731 17.5 5.83334C17.5 6.29357 17.1269 6.66667 16.6667 6.66667H16.6001L15.833 15.8715C15.8231 16.5207 15.5609 17.1413 15.1011 17.6011C14.6323 18.0699 13.9964 18.3333 13.3333 18.3333H6.66667C6.00362 18.3333 5.36774 18.0699 4.8989 17.6011C4.43906 17.1413 4.17685 16.5207 4.16696 15.8715L3.39989 6.66667H3.33333C2.8731 6.66667 2.5 6.29357 2.5 5.83334C2.5 5.3731 2.8731 5 3.33333 5H4.15878C4.16467 4.99994 4.17055 4.99994 4.17641 5H6.66667V3.33334C6.66667 2.89131 6.84226 2.46739 7.15482 2.15483ZM5.07233 6.66667L5.83045 15.7641C5.83237 15.7871 5.83333 15.8102 5.83333 15.8333C5.83333 16.0543 5.92113 16.2663 6.07741 16.4226C6.23369 16.5789 6.44565 16.6667 6.66667 16.6667H13.3333C13.5543 16.6667 13.7663 16.5789 13.9226 16.4226C14.0789 16.2663 14.1667 16.0543 14.1667 15.8333C14.1667 15.8102 14.1676 15.7871 14.1695 15.7641L14.9277 6.66667H5.07233ZM11.6667 5H8.33333V3.33334H11.6667V5ZM8.33333 8.33334C8.79357 8.33334 9.16667 8.70643 9.16667 9.16667V14.1667C9.16667 14.6269 8.79357 15 8.33333 15C7.8731 15 7.5 14.6269 7.5 14.1667V9.16667C7.5 8.70643 7.8731 8.33334 8.33333 8.33334ZM11.6667 8.33334C12.1269 8.33334 12.5 8.70643 12.5 9.16667V14.1667C12.5 14.6269 12.1269 15 11.6667 15C11.2064 15 10.8333 14.6269 10.8333 14.1667V9.16667C10.8333 8.70643 11.2064 8.33334 11.6667 8.33334Z" fill="currentColor"/></symbol>
	<symbol id="WhatsApp"  xmlns="http://www.w3.org/2000/svg" viewBox="0 0 18 18" fill="none" ><path fill-rule="evenodd" clip-rule="evenodd" d="M13.333 3.94275C12.0977 2.88909 10.5203 2.32246 8.89688 2.34921C7.27345 2.37596 5.71558 2.99425 4.51564 4.08804C3.3157 5.18184 2.55617 6.67594 2.3796 8.28996C2.20302 9.90398 2.62153 11.527 3.5566 12.8543C3.72398 13.0919 3.75547 13.3996 3.63972 13.6661L2.88341 15.408L5.56246 14.9305C5.73665 14.8995 5.9162 14.9247 6.07512 15.0025C7.53336 15.7165 9.20204 15.8737 10.768 15.4448C12.334 15.0158 13.6896 14.0301 14.5804 12.6727C15.4712 11.3152 15.836 9.67933 15.6064 8.07201C15.3767 6.46468 14.5684 4.99641 13.333 3.94275ZM8.86942 0.682773C10.8987 0.649334 12.8704 1.35761 14.4146 2.67469C15.9588 3.99177 16.9692 5.8271 17.2563 7.83626C17.5433 9.84542 17.0873 11.8903 15.9738 13.5871C14.8603 15.2839 13.1658 16.516 11.2083 17.0522C9.34061 17.5638 7.35601 17.4083 5.59455 16.6177L1.64654 17.3213C1.34428 17.3752 1.03687 17.2585 0.846507 17.0176C0.656144 16.7767 0.613663 16.4506 0.735949 16.169L1.93091 13.417C0.947723 11.8367 0.519412 9.96793 0.722814 8.1087C0.943534 6.09118 1.89294 4.22355 3.39287 2.85631C4.8928 1.48907 6.84013 0.716212 8.86942 0.682773ZM6.03312 5.61685C6.26754 5.38243 6.58548 5.25073 6.917 5.25073C7.24852 5.25073 7.56646 5.38243 7.80088 5.61685C8.03531 5.85127 8.167 6.16921 8.167 6.50073V7.33407C8.167 7.66558 8.03531 7.98353 7.80088 8.21795C7.71659 8.30224 7.62149 8.37326 7.51885 8.42964C7.68255 8.89999 7.95113 9.33224 8.30998 9.69109C8.66883 10.0499 9.10107 10.3185 9.57143 10.4822C9.62781 10.3796 9.69882 10.2845 9.78312 10.2002C10.0175 9.96576 10.3355 9.83407 10.667 9.83407H11.5003C11.8319 9.83407 12.1498 9.96576 12.3842 10.2002C12.6186 10.4346 12.7503 10.7525 12.7503 11.0841C12.7503 11.4156 12.6186 11.7335 12.3842 11.9679C12.1498 12.2024 11.8319 12.3341 11.5003 12.3341H10.667C9.34092 12.3341 8.06915 11.8073 7.13147 10.8696C6.19378 9.93192 5.667 8.66015 5.667 7.33407V6.50073C5.667 6.16921 5.79869 5.85127 6.03312 5.61685Z" fill="currentColor"/></symbol>
	<symbol id="ArrowsPointingOut" xmlns="http://www.w3.org/2000/svg" fill="none" viewBox="0 0 24 24"><path stroke-linecap="round" stroke-linejoin="round" d="M3.75 3.75v4.5m0-4.5h4.5m-4.5 0L9 9M3.75 20.25v-4.5m0 4.5h4.5m-4.5 0L9 15M20.25 3.75h-4.5m4.5 0v4.5m0-4.5L15 9m5.25 11.25h-4.5m4.5 0v-4.5m0 4.5L15 15" /></symbol>
	<symbol id="logo-header" width="159" height="41" viewBox="0 0 159 41" xmlns="http://www.w3.org/2000/svg" xmlns:xlink="http://www.w3.org/1999/xlink">

		<g transform="translate(0.000000,41.000000) scale(0.100000,-0.100000)"
		fill="#000000" stroke="none"><path d="M40 371 c0 -6 4 -13 10 -16 6 -3 7 1 4 9 -7 18 -14 21 -14 7z"/><path d="M138 373 c7 -3 16 -2 19 1 4 3 -2 6 -13 5 -11 0 -14 -3 -6 -6z"/><path d="M231 328 c1 -29 4 -42 6 -30 l5 24 26 -24 c22 -19 24 -19 9 -2 -16
		19 -16 22 -2 27 8 4 14 14 14 24 -1 17 -2 17 -6 1 -2 -10 -13 -18 -24 -18 -24
		0 -26 37 -1 43 13 4 11 5 -5 6 -21 1 -23 -3 -22 -51z"/><path d="M333 330 c0 -30 2 -43 4 -27 2 15 2 39 0 55 -2 15 -4 2 -4 -28z"/><path d="M603 373 c9 -2 23 -2 30 0 6 3 -1 5 -18 5 -16 0 -22 -2 -12 -5z"/><path d="M981 328 c1 -29 4 -43 6 -30 3 15 10 22 18 18 7 -2 18 1 24 8 9 10 6
		12 -14 8 -20 -3 -25 0 -25 16 0 11 8 23 18 25 13 4 11 5 -5 6 -21 1 -23 -3
		-22 -51z"/><path d="M1246 364 c-3 -9 -4 -19 -1 -22 3 -3 5 1 5 9 0 11 2 11 10 -1 5 -8
		10 -10 10 -5 0 6 -4 16 -9 23 -6 11 -10 10 -15 -4z"/><path d="M1337 373 c-4 -3 -6 -25 -6 -47 1 -23 3 -33 6 -23 5 19 14 21 31 7 6
		-6 10 -7 7 -3 -3 3 3 16 12 27 10 12 11 15 3 9 -23 -21 -50 -16 -50 8 0 17 5
		20 25 17 13 -3 22 -1 19 3 -6 11 -38 12 -47 2z"/><path d="M1528 373 c7 -3 16 -2 19 1 4 3 -2 6 -13 5 -11 0 -14 -3 -6 -6z"/><path d="M455 351 c-4 -13 -4 -25 -1 -28 3 -4 6 2 6 13 0 16 2 17 10 4 5 -8
		10 -10 10 -5 0 6 -4 16 -9 24 -7 11 -10 9 -16 -8z"/><path d="M516 355 c-9 -26 -7 -32 5 -12 6 10 9 21 6 23 -2 3 -7 -2 -11 -11z"/><path d="M693 330 c0 -25 2 -35 4 -22 2 12 2 32 0 45 -2 12 -4 2 -4 -23z"/>
		<path d="M753 335 c0 -22 2 -30 4 -17 2 12 2 30 0 40 -3 9 -5 -1 -4 -23z"/><path d="M890 359 c0 -5 5 -7 10 -4 6 3 10 8 10 11 0 2 -4 4 -10 4 -5 0 -10
		-5 -10 -11z"/><path d="M1090 356 c0 -9 5 -16 10 -16 6 0 10 4 10 9 0 6 -4 13 -10 16 -5 3
		-10 -1 -10 -9z"/><path d="M1571 352 c17 -27 4 -53 -32 -63 -21 -6 -22 -7 -3 -8 24 -1 54 28 54
		51 0 9 -7 22 -17 29 -15 13 -15 12 -2 -9z"/><path d="M1146 344 c-4 -9 -4 -19 -1 -22 3 -3 5 0 5 7 0 7 5 9 10 6 6 -3 10 1
		10 9 0 21 -16 20 -24 0z"/><path d="M153 343 c-13 -2 -23 -8 -23 -13 0 -10 38 -1 46 11 3 5 4 8 2 8 -2
		-1 -13 -4 -25 -6z"/><path d="M1492 330 c0 -14 2 -19 5 -12 2 6 2 18 0 25 -3 6 -5 1 -5 -13z"/><path d="M60 326 c0 -8 4 -17 9 -20 5 -4 7 3 4 14 -6 23 -13 26 -13 6z"/><path d="M531 324 c0 -11 3 -14 6 -6 3 7 2 16 -1 19 -3 4 -6 -2 -5 -13z"/><path d="M1226 315 c-9 -26 -7 -32 5 -12 6 10 9 21 6 23 -2 3 -7 -2 -11 -11z"/><path d="M1270 325 c0 -5 5 -17 10 -25 5 -8 10 -10 10 -5 0 6 -5 17 -10 25 -5
		8 -10 11 -10 5z"/><path d="M181 304 c0 -11 3 -14 6 -6 3 7 2 16 -1 19 -3 4 -6 -2 -5 -13z"/><path d="M480 311 c0 -6 4 -13 10 -16 6 -3 7 1 4 9 -7 18 -14 21 -14 7z"/><path d="M870 309 c0 -5 5 -7 10 -4 6 3 10 8 10 11 0 2 -4 4 -10 4 -5 0 -10
		-5 -10 -11z"/><path d="M920 315 c0 -5 5 -17 10 -25 5 -8 10 -10 10 -5 0 6 -5 17 -10 25 -5
		8 -10 11 -10 5z"/><path d="M1171 304 c0 -11 3 -14 6 -6 3 7 2 16 -1 19 -3 4 -6 -2 -5 -13z"/><path d="M1120 300 c0 -5 5 -10 10 -10 6 0 10 5 10 10 0 6 -4 10 -10 10 -5 0
		-10 -4 -10 -10z"/><path d="M138 283 c6 -2 18 -2 25 0 6 3 1 5 -13 5 -14 0 -19 -2 -12 -5z"/><path d="M603 283 c9 -2 23 -2 30 0 6 3 -1 5 -18 5 -16 0 -22 -2 -12 -5z"/><path d="M718 283 c7 -3 16 -2 19 1 4 3 -2 6 -13 5 -11 0 -14 -3 -6 -6z"/></g>
	</symbol>	
</svg>
